# xmcd CD database file
#
# Track frame offsets:
#	150
#	9195
#	22690
#	43207
#	68391
#	92882
#	118506
#	138882
#	158767
#
# Disc length: 2365 seconds
#
# Revision: 0
# Processed by: cddbd v1.5.2PL0 Copyright (c) Steve Scherf et al.
# Submitted via: CDex 1.51
#
DISCID=5e093b09
DTITLE=Maya and Sage - At Baba's Feet
DYEAR=2008
DGENRE=New Age
TTITLE0=Guru Mantra
TTITLE1=Gajanana
TTITLE2=Jaya Ma 
TTITLE3=Swagatam Krishna
TTITLE4=Ganga Jatadhara
TTITLE5=Shirdi Sai
TTITLE6=Om Mama
TTITLE7=Antara Jyoti Namo
TTITLE8=Om Nama Shivaya
EXTD=YEAR: 2008
EXTT0=
EXTT1=
EXTT2=
EXTT3=
EXTT4=
EXTT5=
EXTT6=
EXTT7=
EXTT8=
PLAYORDER=
